<svg xmlns="http://www.w3.org/2000/svg" height="2048" preserveAspectRatio="none" style="display: block;" version="1.1" viewBox="0 0 2048 2048" width="2048">
<path d="M 0 0 L 55.3638 0 L 1990.57 0 L 2048 0 L 2048 57.3724 L 2048 1989.87 L 2048 2048 L 1986.39 2048 L 61.9967 2048 L 0 2048 L 0 1990.83 L 0 55.5375 L 0 0 z" fill="rgb(246,247,251)" transform="translate(0,0)"></path>
<path d="M 2048 1989.87 L 2048 2048 L 1986.39 2048 C 1988.37 2047.38 1990.53 2046.5 1992.51 2046.07 C 2022.56 2039.52 2040.42 2018.49 2048 1989.87 z" fill="rgb(239,244,250)" transform="translate(0,0)"></path>
<path d="M 0 1990.83 C 1.61004 1995.68 2.45173 2001.04 4.48403 2005.52 C 11.4287 2020.65 24.1533 2033.44 39.1033 2040.69 C 44.3331 2043.23 50.3514 2044.9 55.9859 2046.24 C 58.0244 2046.73 59.8908 2047.49 61.9967 2048 L 0 2048 L 0 1990.83 z" fill="rgb(239,244,250)" transform="translate(0,0)"></path>
<path d="M 1990.57 0 L 2048 0 L 2048 57.3724 C 2037.86 21.4882 2024.5 11.4681 1990.57 0 z" fill="rgb(239,244,250)" transform="translate(0,0)"></path>
<path d="M 0 0 L 55.3638 0 C 29.7009 7.29559 8.6092 22.8801 1.76175 49.9835 C 1.30403 51.7952 0.60867 53.7657 0 55.5375 L 0 0 z" fill="rgb(239,244,250)" transform="translate(0,0)"></path>
<path d="M 480.979 427.189 L 707.927 427.236 C 729.33 427.279 752.01 426.888 773.203 429.553 C 865.386 441.146 932.699 480.639 996.777 544.974 C 947.793 593.237 899.349 642.045 851.454 691.39 C 779.029 635.33 774.113 631.792 681.004 632.179 L 680.855 747.767 C 680.845 766.26 679.914 798.402 682.598 815.55 C 685.185 831.399 690.513 846.676 698.343 860.696 C 716.206 891.996 745.865 914.835 780.69 924.106 C 784.9 886.898 798.286 851.654 816.529 819.116 C 844.843 768.615 889.43 730.091 930.048 689.258 L 1087.19 531.585 C 1136.98 482.335 1189.97 450.32 1259.17 435.094 C 1306.28 424.728 1350.46 427.179 1398.25 427.186 L 1566.82 427.476 L 1567 904.991 L 1367.23 904.993 C 1366.98 814.883 1366.07 722.315 1367.31 632.363 C 1277.08 631.702 1264.56 633.502 1200.21 698.327 L 1147.82 751.31 C 1093.51 806.755 1038.74 861.742 983.509 916.265 C 1043.67 918.259 1106.59 915.717 1166.92 916.746 C 1199.31 917.298 1232.98 915.478 1265.17 918.77 C 1342.82 927.188 1415.29 961.781 1470.66 1016.86 C 1512.18 1057.92 1541.99 1109.32 1557.01 1165.75 C 1568.74 1211.11 1566.93 1242.56 1566.9 1288.46 L 1566.89 1373.96 L 1566.82 1618.2 L 1566.54 1619.89 C 1562.44 1622.79 1416.71 1620.83 1395.68 1621.25 C 1376.88 1621.64 1322.19 1622.02 1302.66 1620.66 C 1229.66 1615.69 1159.88 1588.66 1102.6 1543.13 C 1084.02 1528.45 1071.11 1515.49 1054.06 1499.22 C 1069.26 1482.8 1086.09 1466.57 1101.95 1450.7 L 1196.9 1355.39 C 1232.12 1384.74 1264.1 1411.51 1312.25 1414.65 C 1329.26 1415.76 1349.87 1415.09 1367.15 1415.03 L 1367.17 1297.37 C 1367.18 1279.53 1368.3 1248.17 1366.02 1231.92 C 1363.76 1216.31 1358.8 1201.21 1351.37 1187.3 C 1333.65 1154.83 1304.58 1133.2 1269.38 1122.92 C 1259.91 1171.01 1240.72 1216.67 1212.98 1257.08 C 1199.45 1276.7 1185.33 1289.57 1168.67 1306.32 L 1119.79 1355.54 L 954.697 1521.66 C 900.818 1575.17 819.658 1613.99 744.061 1620.27 C 715.902 1622.61 670.792 1621.33 641.098 1621.3 L 480.878 1621.06 L 480.881 1145.54 C 547.031 1144.82 614.715 1145.63 680.965 1145.63 L 681.061 1415.09 C 716.243 1415.15 747.617 1418.14 780.202 1402.22 C 805.67 1389.77 816.288 1377.57 835.911 1357.91 L 879.207 1314.62 L 996.365 1197.32 C 1018.5 1175.15 1041.56 1151.34 1064.27 1129.97 L 822.276 1129.91 C 807.556 1129.83 793.825 1129.34 779.215 1127.97 C 624.495 1113.43 498.564 986.36 482.732 832.152 C 480.299 808.458 480.836 784.939 480.861 760.975 L 480.931 667.406 L 480.979 427.189 z" fill="rgb(34,77,163)" transform="translate(0,0)"></path>
<metadata><recraft-signature>{"signed_by": "recraft", "signature_b64": "Pfmc/c27RqNVwqxGVSNBoLseS0QRbSjJxDoqy0WACsV0Madgd+nIjf8R+nR4QLq+yHcIVajZBkMntjmCn7x4Dw==", "signing_algo": "Ed25519", "generation_timestamp": 1774683917, "identifier": "e88a6ebf-5405-4e6d-af40-93e36c1fd71d"}</recraft-signature></metadata></svg>